<svg width="20" height="18" viewBox="0 0 20 18" fill="none" xmlns="http://www.w3.org/2000/svg">
<g id="Group">
<path id="Vector" d="M4.6345 15.7873C3.53324 14.686 2.78327 13.2829 2.47944 11.7554C2.17561 10.2279 2.33156 8.64462 2.92756 7.20574C3.52357 5.76687 4.53287 4.53704 5.82783 3.67178C7.12279 2.80652 8.64524 2.34469 10.2027 2.34469C11.7601 2.34469 13.2826 2.80652 14.5775 3.67178C15.8725 4.53704 16.8818 5.76687 17.4778 7.20574C18.0738 8.64462 18.2297 10.2279 17.9259 11.7554C17.6221 13.2829 16.8721 14.686 15.7708 15.7873L17.008 17.0245C17.9031 16.1318 18.6129 15.071 19.0967 13.9031C19.5804 12.7352 19.8287 11.4833 19.8271 10.2192C19.8271 4.90384 15.518 0.594727 10.2027 0.594727C4.88736 0.594727 0.578247 4.90384 0.578247 10.2192C0.578247 12.8772 1.65531 15.2833 3.39733 17.0245L4.6345 15.7873Z" fill="#159643"/>
<path id="Vector_2" d="M14.5336 14.5502C15.3901 13.6936 15.9734 12.6023 16.2096 11.4142C16.4459 10.2262 16.3246 8.99476 15.861 7.87566C15.3974 6.75657 14.6124 5.80007 13.6052 5.12711C12.5981 4.45416 11.4139 4.09497 10.2026 4.09497C8.99133 4.09497 7.80722 4.45416 6.80004 5.12711C5.79286 5.80007 5.00785 6.75657 4.54428 7.87566C4.0807 8.99476 3.95937 10.2262 4.19564 11.4142C4.43191 12.6023 5.01517 13.6936 5.87165 14.5502L7.1097 13.313C6.49787 12.7012 6.08121 11.9217 5.9124 11.073C5.7436 10.2244 5.83023 9.3448 6.16134 8.54542C6.49245 7.74604 7.05317 7.06279 7.77259 6.58208C8.49202 6.10138 9.33783 5.8448 10.2031 5.8448C11.0683 5.8448 11.9141 6.10138 12.6336 6.58208C13.353 7.06279 13.9137 7.74604 14.2448 8.54542C14.5759 9.3448 14.6626 10.2244 14.4937 11.073C14.3249 11.9217 13.9083 12.7012 13.2965 13.313L14.5336 14.5502Z" fill="#159643"/>
<path id="Vector_3" d="M12.0584 12.075C12.4255 11.7079 12.6754 11.2402 12.7767 10.731C12.8779 10.2218 12.8259 9.6941 12.6272 9.21449C12.4286 8.73489 12.0921 8.32498 11.6605 8.03657C11.2288 7.74817 10.7214 7.59424 10.2022 7.59424C9.68311 7.59424 9.17564 7.74817 8.744 8.03657C8.31235 8.32498 7.97592 8.73489 7.77724 9.21449C7.57856 9.6941 7.52655 10.2218 7.6278 10.731C7.72904 11.2402 7.97899 11.7079 8.34604 12.075L9.58409 10.8378C9.4617 10.7154 9.37834 10.5595 9.34456 10.3898C9.31078 10.2201 9.32809 10.0441 9.3943 9.88425C9.46052 9.72436 9.57266 9.5877 9.71655 9.49154C9.86044 9.39539 10.0296 9.34407 10.2027 9.34407C10.3757 9.34407 10.5449 9.39539 10.6888 9.49154C10.8327 9.5877 10.9448 9.72436 11.011 9.88425C11.0773 10.0441 11.0946 10.2201 11.0608 10.3898C11.027 10.5595 10.9437 10.7154 10.8213 10.8378L12.0584 12.075Z" fill="#159643"/>
</g>
</svg>
